<?xml version="1.0" encoding="utf-8"?>
<!-- Generator: Adobe Illustrator 24.0.2, SVG Export Plug-In . SVG Version: 6.00 Build 0)  -->
<svg version="1.1" id="Capa_1" xmlns="http://www.w3.org/2000/svg" xmlns:xlink="http://www.w3.org/1999/xlink" x="0px" y="0px"
	 viewBox="0 0 28 40" style="enable-background:new 0 0 28 40;" xml:space="preserve">
<style type="text/css">
	.st0{fill:#FFFFFF;}
</style>
<title>cel</title>
<g id="Capa_2_1_">
	<g id="Capa_1-2">
		<path class="st0" d="M0,3.4c2.3,11.3,1.5,23.3,1.6,34.9c0,0.8,0.7,1.4,1.5,1.4c7.1,0.3,14.3,0.3,21.4,0.2c1.9,0,1.9-2.9,0-2.9
			c-7.1,0.1-14.3,0.1-21.4-0.2l1.4,1.4c-0.1-11.8,0.7-24-1.7-35.6C2.4,0.8-0.3,1.6,0,3.4z"/>
		<path class="st0" d="M1.8,3.3l12.4-0.1c2.3,0,5.1-0.9,6.7,1.5c0.8,1.3,0.8,4.1,1,5.5c0.6,3.1,5.5,25.6,2,26.6
			c-0.8,0.2-1.2,1-1,1.8c0.2,0.8,1,1.2,1.8,1c4.4-1.2,3.4-5.6,3-9.3C27,24,26.1,17.6,25,11.3c-0.5-3.1-0.2-9.9-3.8-11
			c-2.2-0.7-5.7,0-8,0L1.8,0.5C1,0.5,0.4,1.2,0.5,2C0.5,2.7,1.1,3.3,1.8,3.3z"/>
		<path class="st0" d="M2.9,32.3l21.4-1.4c1.8-0.1,1.9-3,0-2.9L2.9,29.4C1.1,29.5,1,32.4,2.9,32.3z"/>
		<path class="st0" d="M13.7,35.1c0.8,0,1.4-0.6,1.4-1.4c0-0.8-0.6-1.4-1.4-1.4l0,0c-0.8,0-1.4,0.6-1.4,1.4
			C12.2,34.4,12.9,35.1,13.7,35.1z"/>
	</g>
</g>
</svg>
