<?xml version="1.0" encoding="utf-8"?>
<!-- Generator: Adobe Illustrator 24.0.2, SVG Export Plug-In . SVG Version: 6.00 Build 0)  -->
<svg version="1.1" id="Capa_1" xmlns="http://www.w3.org/2000/svg" xmlns:xlink="http://www.w3.org/1999/xlink" x="0px" y="0px"
	 viewBox="0 0 33.1 32.4" style="enable-background:new 0 0 33.1 32.4;" xml:space="preserve">
<style type="text/css">
	.st0{fill:#FFFFFF;}
</style>
<title>contac</title>
<g id="Capa_2_1_">
	<g id="Capa_1-2">
		<path class="st0" d="M20.4,11.6c-3.3-1.3-7-0.5-9.6,1.9c-2.1,2-3.6,5.7-2.4,8.5c1.3,3.1,5.2,3.1,7.9,2.1c1.7-0.6,3.3-1.5,4.6-2.8
			c0.9-0.3,1.1-0.9,0.5-1.7l0.5,1c0.8,1.3,1.4,2.8,2.1,4.2c0.8,1.6,3.3,0.2,2.5-1.5c-1.5-2.9-2.7-8.1-6.5-5.1
			c-1.1,1-2.2,1.8-3.5,2.6c-2.1,1.1-6.4,1.5-5.5-2.2c0.9-4,5-5.5,8.6-4.3C21.4,15,22.1,12.2,20.4,11.6L20.4,11.6z"/>
		<path class="st0" d="M26.6,25.9c7.1-3.8,8.7-14.5,3.4-20.7C27.2,2,21.9,1.1,18,0.4C13.6-0.4,9-0.2,5.2,2.3
			c-6.2,4.2-6.4,15.9-3,21.9c5.2,9.3,17.3,8.6,26.3,7.5c1.8-0.2,1.8-3.1,0-2.9c-6.3,0.8-13.4,1.7-19.2-1.6s-7-10.8-5.7-17
			C5.5,1,15.8,2.4,22.8,4.5c4.1,1.3,6.3,3.5,7.2,7.7c0.9,4.5-0.7,9.1-4.8,11.2C23.5,24.3,25,26.8,26.6,25.9z"/>
	</g>
</g>
</svg>
