<?xml version="1.0" encoding="utf-8"?>
<!-- Generator: Adobe Illustrator 24.0.2, SVG Export Plug-In . SVG Version: 6.00 Build 0)  -->
<svg version="1.1" id="Capa_1" xmlns="http://www.w3.org/2000/svg" xmlns:xlink="http://www.w3.org/1999/xlink" x="0px" y="0px"
	 viewBox="0 0 164.4 140.8" style="enable-background:new 0 0 164.4 140.8;" xml:space="preserve">
<style type="text/css">
	.st0{fill:#FFFFFF;}
</style>
<title>like</title>
<g id="Capa_2_1_">
	<g id="Capa_1-2">
		<path class="st0" d="M62.3,132.8c-2.3,7.4-3.1,8-11.3,8c-12.2,0-24.3,0-36.5,0c-7.6,0-9-1.4-9.6-8.8c-1.6-19.3-3.1-38.5-4.6-57.8
			C-0.6,65,0.8,63.4,9.8,63.5c16,0.1,32,0.3,47.9,0.3c1.8-0.2,3.3-1.2,4.3-2.6c6.5-10,12.8-20.2,19-30.4c0.9-1.4,1-3.5,1-5.3
			c0.1-4.7-0.1-9.3-0.2-14c0-6.3,2.3-9.3,8.6-10.9c6.7-1.7,13.2,0.5,15.8,5.2c7.2,13.1,9.6,26.8,5.5,41.4c-0.4,1.9-0.7,3.7-0.9,5.6
			h5.8c10.8,0,21.7-0.1,32.5,0c5.8,0.1,11.1,1.5,13.8,7.2s1.3,11-2.2,16c-0.9,1.3-1,3.2-1.4,4.9c-0.1,0.6,0.4,1.4,0.3,2
			c-1.7,4.7-4.9,9.4-5,14.1c-0.1,5.2-0.3,9.8-3.2,14.1c-1,1.4-1.5,3.1-1.4,4.8c0.9,10.3-6.1,19.7-16.5,19.9c-20.7,0.5-41.3,0.3-62,0
			C68.4,135.7,65.3,133.8,62.3,132.8z M56.4,123.1c4.5,1.9,7.9,3.5,11.4,4.8c2.1,0.9,4.3,1.5,6.6,1.7c18.7,0.1,37.3,0,56,0
			c5.5,0,10-2.1,12.2-7c0.9-2.1,1-5.7-0.2-7.3c-2.4-3.3-1-4.3,1.5-6.1c5-3.6,5.5-7.5,2.6-12.8c-0.4-1.2-0.2-2.6,0.6-3.6
			c7.3-7,7.6-7.9,3.2-16.2c0.7-0.7,1.4-1.3,2.1-1.9c3.7-2.7,6.8-6,5.2-10.9s-6.3-4.8-10.5-4.8l-35-0.1h-9c0.4-2.4,0.6-4,0.9-5.6
			c0.2-0.8,0.4-1.6,0.6-2.4c3.2-13.9,4.5-27.5-3.1-40.7c-2.3-4.1-5.5-4.1-9.3-3.6c-4,0.5-4.6,3.4-4.1,6.6
			c2.1,12.9-1.7,24.2-9.3,34.6c-2.2,3-3.9,6.2-6,9.2c-3.9,5.8-7.8,11.6-14.3,15c-1.2,0.8-2,2.1-2.1,3.5
			C56.3,91.7,56.4,107.8,56.4,123.1z M11,134.1h38.8V70H6C7.7,91.3,9.3,112.3,11,134.1L11,134.1z"/>
	</g>
</g>
</svg>
