<svg xmlns="http://www.w3.org/2000/svg" viewBox="0 0 118.59 58.34"><defs><style>.cls-1{fill:#fff;}</style></defs><title>logo_geral</title><g id="Capa_2" data-name="Capa 2"><g id="Capa_1-2" data-name="Capa 1"><path class="cls-1" d="M13.63,38.24a11.11,11.11,0,0,1-5.74-5,14.37,14.37,0,0,1-1.81-7.47,18.71,18.71,0,0,1,2-8.07,19.12,19.12,0,0,1,5-6.37A16.13,16.13,0,0,1,20.16,8a13.69,13.69,0,0,1,8.27,1,1.68,1.68,0,0,1,.63.31,3.57,3.57,0,0,1,1.73.83,3.62,3.62,0,0,1,1.1,2q.7,3.32,1.3,6.69a55.64,55.64,0,0,1,.75,6.73,38.43,38.43,0,0,1-.28,6.69,25.82,25.82,0,0,1-1.77,6.57A20.91,20.91,0,0,1,28.78,44a20,20,0,0,1-4.41,4A18.14,18.14,0,0,1,19,50.44a15.3,15.3,0,0,1-6,.4,3.82,3.82,0,0,1-2.83-1.62,5,5,0,0,1-.95-2.87,4,4,0,0,1,.95-2.64,2.94,2.94,0,0,1,2.83-.9,11.38,11.38,0,0,0,6.22-.67,8.86,8.86,0,0,0,3.85-3.42,17.3,17.3,0,0,1-4.64.62A11.54,11.54,0,0,1,13.63,38.24Zm.79-14.87a11.41,11.41,0,0,0-.32,2,9.18,9.18,0,0,0,.08,2,5.35,5.35,0,0,0,.67,1.85,4,4,0,0,0,1.46,1.42,5.25,5.25,0,0,0,4.33.47,12.46,12.46,0,0,0,4-2.05,7.14,7.14,0,0,1,.94-.55A38.37,38.37,0,0,0,25.36,22c-.27-2.15-.55-4.12-.87-5.9a8.71,8.71,0,0,0-3.42,0,7.53,7.53,0,0,0-2.95,1.34A8.89,8.89,0,0,0,15.83,20,11.43,11.43,0,0,0,14.42,23.37Z"/><path class="cls-1" d="M55.37,48.34a22.46,22.46,0,0,1-8.13-.13A14.74,14.74,0,0,1,40,44.56a12.4,12.4,0,0,1-2.8-3.71A12.69,12.69,0,0,1,36,36.59a17.85,17.85,0,0,1,.1-4.55,21.14,21.14,0,0,1,1.15-4.49,15.28,15.28,0,0,1,2.12-3.82,11.05,11.05,0,0,1,3-2.77,10.13,10.13,0,0,1,3.78-1.35,10.54,10.54,0,0,1,4.43.37,10.13,10.13,0,0,1,3.84,2,13.06,13.06,0,0,1,2.74,3.11,14.27,14.27,0,0,1,1.69,3.88,21.77,21.77,0,0,1,.71,4.22,3.28,3.28,0,0,1-.71,2.09,2.68,2.68,0,0,1-1.79,1.22l-6.65.95-6.59.94a7.62,7.62,0,0,0,4,3,11.47,11.47,0,0,0,5.54.41,3.28,3.28,0,0,1,2.74.64,4.42,4.42,0,0,1,1.48,2.16,3.26,3.26,0,0,1-.17,2.4A2.67,2.67,0,0,1,55.37,48.34ZM47.94,26.4a3.6,3.6,0,0,0-1.89.34,3.55,3.55,0,0,0-1.35,1.18,8.51,8.51,0,0,0-.91,1.72,11.33,11.33,0,0,0-.57,1.89c1.48-.22,3-.44,4.45-.64s3-.42,4.53-.64a8.44,8.44,0,0,0-1.55-2.57A3.9,3.9,0,0,0,47.94,26.4Z"/><path class="cls-1" d="M59.55,11.57a3,3,0,0,1,.67-2.23,3.18,3.18,0,0,1,1.79-1,4.23,4.23,0,0,1,2.16.16,3.14,3.14,0,0,1,1.72,1.32,14.68,14.68,0,0,1,6.52-1.32,14,14,0,0,1,6.52,1.86,2.83,2.83,0,0,1,1.65,2.13,3.77,3.77,0,0,1-.47,2.43,3.89,3.89,0,0,1-1.93,1.65,2.93,2.93,0,0,1-2.7-.27,7.31,7.31,0,0,0-4.59-.91,7.17,7.17,0,0,0-4.18,2c.17,3.2.36,6.37.54,9.53s.38,6.32.6,9.52A2.71,2.71,0,0,1,67,38.88a3.54,3.54,0,0,1-2.3.85,4,4,0,0,1-2.43-.85A3.19,3.19,0,0,1,61,36.42Q60,23.85,59.55,11.57Z"/><path class="cls-1" d="M78.08,49.93a9.24,9.24,0,0,1-2.87-.87,10.57,10.57,0,0,1-2.5-1.69A8.47,8.47,0,0,1,70.89,45a6.76,6.76,0,0,1-.78-3,9.38,9.38,0,0,1,1.21-5.47,14.74,14.74,0,0,1,3.75-4.22,21.07,21.07,0,0,1,5.2-2.9A23.27,23.27,0,0,1,86,28a8.18,8.18,0,0,0-1.45-1.79A6.28,6.28,0,0,0,82.7,25a4.64,4.64,0,0,0-2.06-.34,4.35,4.35,0,0,0-2.23.88,2.69,2.69,0,0,1-2.56.5A3.43,3.43,0,0,1,74,24.51a4.07,4.07,0,0,1-.5-2.53A3.18,3.18,0,0,1,75,19.61a9.79,9.79,0,0,1,4.29-1.72,11.56,11.56,0,0,1,4.46.27,14,14,0,0,1,4.15,1.89,13,13,0,0,1,3.31,3.21,21.15,21.15,0,0,1,2.63,4.9,30.47,30.47,0,0,1,1.52,5.5,40.62,40.62,0,0,1,.61,5.74c.06,1.94,0,3.8,0,5.6A3.15,3.15,0,0,1,95,47.23a3.76,3.76,0,0,1-2,1A3.93,3.93,0,0,1,90.84,48a2.76,2.76,0,0,1-1.55-1.52A43.92,43.92,0,0,1,84,49.22,10.63,10.63,0,0,1,78.08,49.93Zm-.41-10.06a2.34,2.34,0,0,0-.47,1.93,1.73,1.73,0,0,0,1,1,4.44,4.44,0,0,0,1.79.27,6,6,0,0,0,1.93-.37,14.82,14.82,0,0,0,3.57-1.86c1.13-.79,2.28-1.54,3.45-2.26,0-.63-.11-1.27-.2-1.92s-.21-1.3-.34-1.93a15.14,15.14,0,0,0-6.08,1.15A9.63,9.63,0,0,0,77.67,39.87Z"/><path class="cls-1" d="M106.09,57.14a8.06,8.06,0,0,1-4.16-3.72,18.13,18.13,0,0,1-1.79-5.63,38.12,38.12,0,0,1-.4-6.48q.06-3.36,0-6.24-.08-7.91.07-15.71t.47-15.71A3.65,3.65,0,0,1,101.46.81a3.21,3.21,0,0,1,2.4-.8,3.7,3.7,0,0,1,2.33,1.2,4,4,0,0,1,1,3q-.27,5.93-.37,11.71t-.17,11.64v6.07q0,3,.06,6.08c0,.59,0,1.37-.06,2.36s0,2,0,3a11.57,11.57,0,0,0,.43,2.76,2.47,2.47,0,0,0,1.25,1.64,3.47,3.47,0,0,1,2,2.23,5.14,5.14,0,0,1,0,3A4.56,4.56,0,0,1,108.75,57,2.38,2.38,0,0,1,106.09,57.14Z"/><circle class="cls-1" cx="114.58" cy="43.1" r="4.01"/><path class="cls-1" d="M2.5,41.1A8.61,8.61,0,0,0,.32,49.64,11.26,11.26,0,0,0,7,56.86c6.43,2.81,14.16,1.41,19.85-2.43a22.23,22.23,0,0,0,7.67-8.79h-1.3c2.69,4.12,6.18,7.14,11,8.4a17.91,17.91,0,0,0,13.08-1.51c.85-.46.09-1.76-.75-1.29a16.32,16.32,0,0,1-11.93,1.35,17,17,0,0,1-10.13-7.71.76.76,0,0,0-1.3,0A21.28,21.28,0,0,1,14.55,56.83c-4,0-8.36-1.16-11-4.28C1,49.66.63,44.89,3.56,42.16c.71-.66-.35-1.72-1.06-1.06Z"/><path class="cls-1" d="M38.49,17.87c-.52-3,2.72-5.19,5.37-5.26,3.63-.09,6.26,2.29,9.25,3.91.89.48,2,.63,2.67-.35s.48-2.88.56-4.1c.18-2.94,1.07-7.61,5-7.42,1,0,1-1.45,0-1.5C58.16,3,56,5.78,55.28,8.59a38.4,38.4,0,0,0-.58,5.56c0,.3-.05.61-.09.91s-.42.46-.74.16a4.09,4.09,0,0,1-1-.61c-.86-.57-1.72-1.12-2.62-1.61-2.83-1.56-6.19-2.6-9.3-1.23-2.57,1.14-4.45,3.62-3.94,6.5.16.95,1.61.55,1.44-.4Z"/></g></g></svg>