<svg xmlns="http://www.w3.org/2000/svg" viewBox="0 0 64.44 78.04"><defs><style>.cls-1{fill:#e0d9d9;}</style></defs><title>simbolo_geral</title><g id="Capa_2" data-name="Capa 2"><g id="Capa_1-2" data-name="Capa 1"><path class="cls-1" d="M21,47.07a17.21,17.21,0,0,1-8.87-7.64A22.4,22.4,0,0,1,9.34,27.89a28.82,28.82,0,0,1,3-12.44,29.53,29.53,0,0,1,7.7-9.83A25,25,0,0,1,31.07.4,21.12,21.12,0,0,1,43.82,1.92a2.83,2.83,0,0,1,1,.48,5.53,5.53,0,0,1,2.67,1.28,5.65,5.65,0,0,1,1.7,3.09q1.1,5.1,2,10.32a82.17,82.17,0,0,1,1.15,10.38,58.46,58.46,0,0,1-.42,10.32,40,40,0,0,1-2.73,10.13,32.09,32.09,0,0,1-4.8,8,31.11,31.11,0,0,1-6.79,6.19,28.32,28.32,0,0,1-8.26,3.76A23.78,23.78,0,0,1,20,66.5,6,6,0,0,1,15.65,64a7.75,7.75,0,0,1-1.45-4.43,6.19,6.19,0,0,1,1.45-4.07A4.57,4.57,0,0,1,20,54.11q5.84.73,9.59-1a13.6,13.6,0,0,0,6-5.28,26.7,26.7,0,0,1-7.16,1A17.73,17.73,0,0,1,21,47.07Zm1.21-22.94a18.43,18.43,0,0,0-.49,3.1,13.13,13.13,0,0,0,.13,3.15,7.93,7.93,0,0,0,1,2.86,6,6,0,0,0,2.24,2.18,8.07,8.07,0,0,0,6.68.73A19.36,19.36,0,0,0,38,33a10.56,10.56,0,0,1,1.46-.85,59.22,59.22,0,0,0-.37-10.07c-.4-3.32-.85-6.35-1.33-9.11a13.73,13.73,0,0,0-5.28.06,12.1,12.1,0,0,0-4.56,2.07,14,14,0,0,0-3.52,3.82A17.7,17.7,0,0,0,22.21,24.13Z"/><circle class="cls-1" cx="58.25" cy="49.92" r="6.18"/><path class="cls-1" d="M3.86,51.5C.19,54.85-.74,60.2.55,64.86c1.44,5.19,5.64,9,10.47,11,9.93,4.21,21.8,2,30.53-4A34,34,0,0,0,53.18,58.46H51.24c.79,1.21,1.59,2.42,2.47,3.57s2.82,0,1.94-1.14S54,58.54,53.18,57.33a1.13,1.13,0,0,0-1.94,0A32.87,32.87,0,0,1,29.82,74.79c-8.77,2.27-21.34.94-26.09-8C1.41,62.46,1.66,56.55,5.45,53.09c1.07-1-.53-2.56-1.59-1.59Z"/></g></g></svg>