<?xml version="1.0" encoding="utf-8"?>
<!-- Generator: Adobe Illustrator 24.0.2, SVG Export Plug-In . SVG Version: 6.00 Build 0)  -->
<svg version="1.1" id="Capa_1" xmlns="http://www.w3.org/2000/svg" xmlns:xlink="http://www.w3.org/1999/xlink" x="0px" y="0px"
	 viewBox="0 0 40.6 23.7" style="enable-background:new 0 0 40.6 23.7;" xml:space="preserve">
<style type="text/css">
	.st0{fill:#FFFFFF;}
</style>
<title>ver</title>
<g id="Capa_2_1_">
	<g id="Capa_1-2">
		<path class="st0" d="M2.5,9.3c9.7-8.4,26.8-8.9,35.7,0.8c1.3,1.4,3.3-0.7,2-2c-10-11-28.9-10.2-39.7-0.8C-1,8.5,1.1,10.5,2.5,9.3
			L2.5,9.3z"/>
		<path class="st0" d="M2.4,17.7c8.9,7.8,26.4,8.5,34.7-0.5c1.3-1.4-0.8-3.4-2-2c-7.1,7.6-22.8,7.3-30.6,0.5
			C3.1,14.4,1.1,16.5,2.4,17.7L2.4,17.7z"/>
		<path class="st0" d="M25.2,8.9c-1.1-1.8-3.2-2.8-5.3-2.4c-0.5,0.1-0.8,0.3-1.2,0.6c-1.7-0.1-3.4,1-3.9,2.8c-0.2,1,0,2,0.4,2.8
			c0.1,2.1,2.1,3.6,4,4C23.5,17.5,27.5,12.9,25.2,8.9z M21.3,13.8c-3.7,0-3.7-5.8,0-5.8S25,13.8,21.3,13.8z"/>
	</g>
</g>
</svg>
